# xmcd CD database file
#
# Track frame offsets:
#	150
#	18505
#	35307
#
# Disc length: 667 seconds
#
# Revision: 1
# Processed by: cddbd v1.5.1PL0 Copyright (c) Steve Scherf et al.
# Submitted via: CDex 1.51
#
DISCID=19029903
DTITLE=Sugar Ray - Someday (Single)
DYEAR=1999
DGENRE=
TTITLE0=Someday (Album Version)
TTITLE1=Someday (Live Acoustic)
TTITLE2=Every Morning (Live Acoustic)
EXTD=YEAR: 1999
EXTT0=
EXTT1=
EXTT2=
PLAYORDER=
